<svg viewBox="0 0 12 12" width="60px" height="60px" xmlns="http://www.w3.org/2000/svg"><path fill-rule="evenodd" d="M 0,0 11,0 11,9 9,9 9,10 6,10 6,4 5,4 5,10 2,10 2,9 0,9z" fill="#F5498B"/><path fill-rule="evenodd" d="M 1,1 2,1 2,2 1,2z" fill="#ffffff"/><path fill-rule="evenodd" d="M 4,1 5,1 5,3 4,3z" fill="#ffffff"/><path fill-rule="evenodd" d="M 6,1 7,1 7,3 6,3z" fill="#ffffff"/><path fill-rule="evenodd" d="M 9,1 10,1 10,2 9,2z" fill="#ffffff"/><path fill-rule="evenodd" d="M 3,3 4,3 4,4 3,4z" fill="#ffffff"/><path fill-rule="evenodd" d="M 7,3 8,3 8,4 7,4z" fill="#ffffff"/><path fill-rule="evenodd" d="M 1,4 2,4 2,5 1,5z" fill="#ffffff"/><path fill-rule="evenodd" d="M 9,4 10,4 10,5 9,5z" fill="#ffffff"/><path fill-rule="evenodd" d="M 3,5 4,5 4,7 3,7z" fill="#ffffff"/><path fill-rule="evenodd" d="M 7,5 8,5 8,7 7,7z" fill="#ffffff"/><path fill-rule="evenodd" d="M 1,7 3,7 3,8 1,8z" fill="#ffffff"/><path fill-rule="evenodd" d="M 8,7 10,7 10,8 8,8z" fill="#ffffff"/><path fill-rule="evenodd" d="M 3,8 4,8 4,9 3,9z" fill="#ffffff"/><path fill-rule="evenodd" d="M 7,8 8,8 8,9 7,9z" fill="#ffffff"/></svg>